<svg width="389" height="389" viewBox="0 0 389 389" fill="none" xmlns="http://www.w3.org/2000/svg">
<circle cx="194.5" cy="194.5" r="184.5" stroke="#00A559" stroke-width="20"/>
<circle cx="194.5" cy="194.5" r="184.5" stroke="#00A559" stroke-width="20"/>
<path d="M91.457 178.266L89.6641 195H47.3359V193.699H48.918C50.3008 193.699 51.4141 193.453 52.2578 192.961C52.8672 192.633 53.3359 192.07 53.6641 191.273C53.9219 190.711 54.0508 189.234 54.0508 186.844V155.484C54.0508 153.047 53.9219 151.523 53.6641 150.914C53.4062 150.305 52.8789 149.777 52.082 149.332C51.3086 148.863 50.2539 148.629 48.918 148.629H47.3359V147.328H72.7539V148.629H70.6797C69.2969 148.629 68.1836 148.875 67.3398 149.367C66.7305 149.695 66.25 150.258 65.8984 151.055C65.6406 151.617 65.5117 153.094 65.5117 155.484V185.859C65.5117 188.297 65.6523 189.855 65.9336 190.535C66.2148 191.191 66.7656 191.684 67.5859 192.012C68.1719 192.223 69.5898 192.328 71.8398 192.328H75.8125C78.3438 192.328 80.4531 191.883 82.1406 190.992C83.8281 190.102 85.2812 188.695 86.5 186.773C87.7422 184.852 88.9141 182.016 90.0156 178.266H91.457Z" fill="#00A559"/>
<path d="M328.953 181.43H312.113L310.109 186.07C309.453 187.617 309.125 188.895 309.125 189.902C309.125 191.238 309.664 192.223 310.742 192.855C311.375 193.23 312.934 193.512 315.418 193.699V195H299.562V193.699C301.273 193.441 302.68 192.738 303.781 191.59C304.883 190.418 306.242 188.016 307.859 184.383L324.91 146.344H325.578L342.77 185.438C344.41 189.141 345.758 191.473 346.812 192.434C347.609 193.16 348.734 193.582 350.188 193.699V195H327.125V193.699H328.074C329.926 193.699 331.227 193.441 331.977 192.926C332.492 192.551 332.75 192.012 332.75 191.309C332.75 190.887 332.68 190.453 332.539 190.008C332.492 189.797 332.141 188.918 331.484 187.371L328.953 181.43ZM327.758 178.828L320.656 162.41L313.344 178.828H327.758Z" fill="#00A559"/>
<path d="M229.961 329.771L226.086 330.403L229.594 312.542L232.046 312.142L232.22 315.39L229.961 329.771ZM231.399 315.525L230.496 312.395L232.959 311.993L242 327.805L238.126 328.437L231.399 315.525ZM237.463 325.102L228.534 326.56L228.054 323.622L236.983 322.165L237.463 325.102Z" fill="#00A559"/>
<path d="M62.8866 243.779L59.8048 235.026L62.8345 233.959L65.9162 242.713L62.8866 243.779ZM60.2264 236.223L58.9026 232.463L76.3381 226.325L77.6618 230.085L60.2264 236.223Z" fill="#00A559"/>
<path d="M83.7143 265.669C81.7726 266.506 79.9563 266.883 78.2654 266.8C76.5831 266.714 75.1032 266.226 73.8257 265.338C72.5568 264.446 71.5785 263.202 70.8906 261.607C70.2027 260.012 69.9661 258.439 70.1807 256.886C70.4077 255.339 71.0652 253.919 72.153 252.628C73.2496 251.332 74.7687 250.266 76.7104 249.429L77.4775 249.098C79.4192 248.26 81.2312 247.885 82.9135 247.972C84.6082 248.063 86.0961 248.557 87.3774 249.454C88.6586 250.351 89.6432 251.597 90.3311 253.192C91.019 254.787 91.2475 256.354 91.0168 257.893C90.7897 259.44 90.1261 260.858 89.0258 262.144C87.938 263.436 86.4232 264.5 84.4815 265.338L83.7143 265.669ZM82.7299 261.205C84.0301 260.644 85.055 260.017 85.8046 259.324C86.5542 258.63 87.0254 257.887 87.2182 257.095C87.411 256.302 87.3261 255.486 86.9634 254.645C86.5933 253.787 86.0558 253.16 85.3508 252.765C84.6459 252.37 83.784 252.207 82.7653 252.276C81.7503 252.354 80.5926 252.674 79.2924 253.234L78.4992 253.576C77.2076 254.133 76.1827 254.76 75.4245 255.458C74.6749 256.151 74.1975 256.891 73.9923 257.679C73.7908 258.475 73.8751 259.302 74.2452 260.161C74.6079 261.001 75.146 261.618 75.8596 262.009C76.577 262.409 77.4432 262.57 78.4582 262.492C79.4856 262.419 80.6451 262.104 81.9367 261.547L82.7299 261.205Z" fill="#00A559"/>
<path d="M108.349 281.286L97.3633 289.22C96.07 290.155 94.7805 290.667 93.4948 290.757C92.2091 290.847 90.9895 290.569 89.836 289.924C88.6881 289.285 87.6608 288.339 86.7543 287.084C85.8423 285.821 85.2583 284.537 85.0023 283.231C84.7518 281.933 84.8714 280.688 85.3612 279.496C85.8564 278.312 86.7507 277.252 88.044 276.318L99.0293 268.383L101.641 271.999L90.6557 279.934C89.9364 280.454 89.4311 280.987 89.1399 281.535C88.8563 282.078 88.7622 282.641 88.8574 283.224C88.9603 283.802 89.2274 284.389 89.6585 284.986C90.0952 285.591 90.5688 286.029 91.0795 286.3C91.5977 286.567 92.1562 286.647 92.7548 286.54C93.3666 286.436 94.0322 286.124 94.7515 285.605L105.737 277.67L108.349 281.286Z" fill="#00A559"/>
<path d="M115.613 312.604L112.274 309.668L115.028 294.421L106.266 304.384L102.927 301.448L116.542 285.966L119.881 288.902L117.129 304.169L125.9 294.195L129.228 297.121L115.613 312.604Z" fill="#00A559"/>
<path d="M129.131 320.9L125.534 318.286L137.653 301.607L141.25 304.22L129.131 320.9Z" fill="#00A559"/>
<path d="M150.494 325.35C150.726 324.95 150.841 324.553 150.84 324.16C150.839 323.767 150.67 323.297 150.331 322.752C150.005 322.203 149.457 321.503 148.684 320.651C148.035 319.926 147.442 319.189 146.905 318.441C146.38 317.69 145.968 316.933 145.668 316.17C145.369 315.407 145.23 314.639 145.252 313.866C145.275 313.094 145.513 312.315 145.968 311.531C146.55 310.527 147.342 309.818 148.345 309.407C149.352 308.987 150.475 308.857 151.713 309.018C152.959 309.184 154.227 309.641 155.517 310.389C156.84 311.156 157.861 312.059 158.579 313.097C159.298 314.136 159.685 315.228 159.741 316.373C159.81 317.515 159.53 318.629 158.9 319.716L155.066 317.493C155.345 317.011 155.489 316.527 155.498 316.041C155.512 315.547 155.369 315.077 155.071 314.632C154.786 314.183 154.325 313.773 153.688 313.404C153.075 313.049 152.513 312.843 152 312.786C151.488 312.729 151.044 312.788 150.669 312.964C150.303 313.144 150.013 313.418 149.8 313.786C149.578 314.169 149.518 314.582 149.622 315.025C149.726 315.467 149.964 315.959 150.337 316.503C150.714 317.038 151.204 317.633 151.806 318.287C152.877 319.432 153.7 320.526 154.274 321.568C154.849 322.61 155.146 323.622 155.165 324.605C155.198 325.584 154.928 326.568 154.355 327.556C153.749 328.601 152.961 329.339 151.991 329.77C151.029 330.206 149.949 330.338 148.75 330.166C147.551 329.995 146.294 329.528 144.979 328.766C144.08 328.245 143.265 327.619 142.532 326.889C141.811 326.155 141.24 325.343 140.817 324.454C140.407 323.562 140.209 322.623 140.223 321.639C140.237 320.654 140.54 319.651 141.132 318.63L144.991 320.867C144.683 321.398 144.501 321.892 144.443 322.35C144.398 322.804 144.456 323.23 144.617 323.63C144.787 324.033 145.049 324.409 145.404 324.757C145.772 325.101 146.217 325.425 146.74 325.728C147.353 326.083 147.898 326.29 148.377 326.349C148.868 326.405 149.291 326.344 149.644 326.167C150.002 325.982 150.286 325.71 150.494 325.35Z" fill="#00A559"/>
<path d="M258.102 320.406C257.934 320.792 257.636 321.247 257.207 321.769C256.784 322.282 256.188 322.795 255.422 323.306C254.662 323.816 253.685 324.253 252.489 324.617C251.077 325.048 249.743 325.12 248.487 324.834C247.23 324.539 246.122 323.893 245.164 322.895C244.213 321.894 243.482 320.553 242.969 318.872L242.685 317.941C242.17 316.253 242.016 314.731 242.224 313.377C242.439 312.021 242.968 310.876 243.81 309.941C244.652 309.006 245.76 308.329 247.135 307.91C248.577 307.47 249.83 307.345 250.893 307.535C251.953 307.718 252.848 308.148 253.577 308.824C254.313 309.498 254.9 310.352 255.338 311.386L251.92 312.429C251.679 311.906 251.383 311.486 251.033 311.168C250.688 310.84 250.278 310.635 249.803 310.551C249.326 310.459 248.759 310.514 248.101 310.715C247.376 310.936 246.818 311.314 246.426 311.85C246.034 312.387 245.819 313.073 245.78 313.91C245.746 314.737 245.901 315.711 246.242 316.832L246.533 317.784C246.873 318.898 247.3 319.789 247.814 320.457C248.328 321.125 248.92 321.565 249.589 321.778C250.266 321.988 251.015 321.967 251.837 321.717C252.345 321.562 252.755 321.392 253.066 321.207C253.377 321.022 253.62 320.842 253.795 320.666C253.968 320.483 254.095 320.321 254.175 320.183L253.347 317.47L250.388 318.373L249.605 315.806L256.095 313.826L258.102 320.406Z" fill="#00A559"/>
<path d="M261.625 301.734C262.804 301.14 263.906 300.808 264.929 300.738C265.956 300.658 266.869 300.846 267.667 301.301C268.461 301.749 269.112 302.476 269.618 303.481C270.04 304.318 270.259 305.1 270.275 305.826C270.298 306.55 270.159 307.228 269.857 307.861C269.555 308.494 269.129 309.098 268.578 309.673L267.832 310.797L262.945 313.26L261.585 310.612L265.174 308.803C265.705 308.536 266.104 308.226 266.372 307.872C266.636 307.511 266.773 307.123 266.782 306.707C266.791 306.291 266.683 305.86 266.458 305.414C266.114 304.73 265.646 304.288 265.055 304.087C264.471 303.883 263.774 303.984 262.965 304.392L260.516 305.626L266.854 318.205L263.568 319.861L255.89 304.624L261.625 301.734ZM265.159 310.569L268.623 308.798L275.451 313.677L275.53 313.834L272.003 315.611L265.159 310.569Z" fill="#00A559"/>
<path d="M281.488 310.778L278.334 312.674L269.545 298.049L272.699 296.154L281.488 310.778Z" fill="#00A559"/>
<path d="M290.526 296.078C291.16 297.047 291.52 298.06 291.605 299.117C291.69 300.173 291.48 301.206 290.975 302.215C290.476 303.22 289.663 304.142 288.535 304.982C287.357 305.859 286.143 306.348 284.894 306.45C283.641 306.545 282.417 306.268 281.222 305.618C280.028 304.969 278.927 303.967 277.919 302.613L277.296 301.777C276.284 300.417 275.644 299.067 275.377 297.727C275.117 296.382 275.212 295.123 275.663 293.95C276.114 292.776 276.919 291.758 278.079 290.895C279.232 290.037 280.362 289.527 281.469 289.365C282.577 289.193 283.621 289.312 284.599 289.723C285.583 290.13 286.469 290.771 287.257 291.646L284.305 293.843C283.651 293.082 282.98 292.638 282.289 292.509C281.601 292.369 280.799 292.639 279.884 293.32C279.276 293.773 278.881 294.296 278.699 294.889C278.518 295.482 278.557 296.163 278.819 296.933C279.075 297.696 279.563 298.561 280.281 299.526L280.918 300.381C281.622 301.328 282.293 302.046 282.93 302.535C283.574 303.021 284.207 303.27 284.831 303.283C285.449 303.29 286.085 303.051 286.736 302.566C287.307 302.141 287.714 301.707 287.958 301.262C288.197 300.812 288.283 300.338 288.216 299.843C288.149 299.347 287.938 298.822 287.584 298.268L290.526 296.078Z" fill="#00A559"/>
<path d="M294.496 276.5L302.566 284.287C303.516 285.204 304.122 286.179 304.384 287.213C304.645 288.247 304.598 289.281 304.24 290.316C303.888 291.344 303.268 292.319 302.378 293.241C301.483 294.169 300.522 294.832 299.496 295.232C298.476 295.626 297.444 295.711 296.401 295.486C295.364 295.256 294.37 294.683 293.42 293.766L285.35 285.979L287.913 283.322L295.983 291.109C296.512 291.619 297.021 291.953 297.51 292.11C297.993 292.261 298.465 292.256 298.926 292.093C299.382 291.924 299.821 291.621 300.245 291.183C300.673 290.738 300.961 290.288 301.107 289.833C301.248 289.372 301.232 288.905 301.057 288.433C300.883 287.95 300.532 287.453 300.003 286.944L291.933 279.156L294.496 276.5Z" fill="#00A559"/>
<path d="M315.632 275.718L310.654 282.689L308.241 280.966L313.219 273.995L315.632 275.718ZM311.335 281.735L309.196 284.73L295.311 274.814L297.449 271.819L311.335 281.735Z" fill="#00A559"/>
<path d="M320.077 268.219L318.109 271.329L303.69 262.206L305.657 259.097L320.077 268.219ZM310.942 256.311L303.474 268.115L300.958 266.524L308.427 254.719L310.942 256.311Z" fill="#00A559"/>
<path d="M313.335 242.076L323.902 245.832C325.146 246.275 326.1 246.913 326.766 247.746C327.431 248.58 327.815 249.541 327.917 250.63C328.022 251.712 327.859 252.857 327.43 254.064C326.998 255.279 326.398 256.28 325.629 257.068C324.862 257.848 323.957 258.352 322.915 258.578C321.875 258.797 320.734 258.686 319.489 258.243L308.923 254.487L310.159 251.009L320.726 254.765C321.418 255.011 322.019 255.105 322.529 255.046C323.032 254.984 323.46 254.784 323.812 254.445C324.158 254.103 324.432 253.645 324.637 253.071C324.843 252.489 324.919 251.961 324.864 251.485C324.802 251.007 324.594 250.589 324.241 250.231C323.882 249.863 323.357 249.557 322.665 249.311L312.098 245.554L313.335 242.076Z" fill="#00A559"/>
<path d="M314.595 234.761C314.709 233.446 315.006 232.335 315.486 231.428C315.958 230.512 316.597 229.835 317.404 229.396C318.203 228.956 319.163 228.785 320.284 228.883C321.218 228.964 321.998 229.189 322.625 229.557C323.252 229.918 323.755 230.393 324.135 230.983C324.515 231.573 324.805 232.253 325.004 233.024L325.567 234.249L325.091 239.701L322.124 239.466L322.474 235.461C322.525 234.87 322.471 234.367 322.311 233.953C322.144 233.539 321.885 233.218 321.537 232.991C321.188 232.765 320.764 232.63 320.266 232.586C319.503 232.52 318.881 232.685 318.4 233.082C317.919 233.472 317.639 234.118 317.56 235.02L317.321 237.752L331.354 238.978L331.034 242.643L314.036 241.159L314.595 234.761ZM323.968 236.403L324.283 232.525L332.024 229.284L332.199 229.3L331.855 233.234L323.968 236.403Z" fill="#00A559"/>
<path d="M334 214.016V223.027H331.035V214.016H334ZM334 221.844V225.535H316.938V221.844H334ZM326.664 215.188V223.027H323.793V215.188H326.664ZM319.914 214.027V223.027H316.938V214.027H319.914Z" fill="#00A559"/>
<path d="M185 334V369H193.5V334H185Z" fill="#00A559" stroke="#00A559"/>
<path d="M196 334V369H204.5V334H196Z" fill="#00A559" stroke="#00A559"/>
<path d="M203.359 320H196V261.613C196.175 259.617 198.838 254.327 208.09 249.137C219.752 239.592 222.729 237.197 222.814 237.152L222.808 237.16C222.815 237.153 222.818 237.15 222.814 237.152L229.115 228.676L312.5 56L321.5 63L240.5 228.676L239.102 253.129C237.978 258.602 234.935 268.787 230.247 274.403C228.16 276.902 225.463 278.969 222.892 280.967C216.626 285.837 205.243 292.262 204.41 293.052C203.569 293.851 203.359 311.35 203.359 320Z" fill="#00A559"/>
<path d="M222.814 237.152C222.729 237.197 219.752 239.592 208.09 249.137C198.838 254.327 196.175 259.617 196 261.613V320H203.359C203.359 311.35 203.569 293.851 204.41 293.052C205.243 292.262 216.626 285.837 222.892 280.967C225.463 278.969 228.16 276.902 230.247 274.403C234.935 268.787 237.978 258.602 239.102 253.129L240.5 228.676L321.5 63L312.5 56L229.115 228.676L222.814 237.152ZM222.814 237.152L222.808 237.16C222.815 237.153 222.818 237.15 222.814 237.152Z" stroke="#00A559"/>
<path d="M186.022 320H193V261.613C192.834 259.617 190.309 254.327 181.536 249.137C170.479 239.592 167.655 237.197 167.575 237.152L167.581 237.16C167.573 237.153 167.571 237.15 167.575 237.152L161.6 228.676L82.5339 56L74 63L150.805 228.676L152.13 253.129C153.188 258.557 156.034 268.619 160.418 274.263C162.427 276.85 165.09 279.006 167.63 281.073C173.598 285.93 184.242 292.267 185.025 293.052C185.823 293.851 186.022 311.35 186.022 320Z" fill="#00A559"/>
<path d="M167.575 237.152C167.655 237.197 170.479 239.592 181.536 249.137C190.309 254.327 192.834 259.617 193 261.613V320H186.022C186.022 311.35 185.823 293.851 185.025 293.052C184.242 292.267 173.598 285.93 167.63 281.073C165.09 279.006 162.427 276.85 160.418 274.263C156.034 268.619 153.188 258.557 152.13 253.129L150.805 228.676L74 63L82.5339 56L161.6 228.676L167.575 237.152ZM167.575 237.152L167.581 237.16C167.573 237.153 167.571 237.15 167.575 237.152Z" stroke="#00A559"/>
<path d="M298.664 48.9427C295.945 47.1302 292.251 48.1604 290.863 51.1181L223.355 194.918C221.503 198.864 218.339 201.956 214.509 204.039C208.703 207.198 201.687 212.276 197 223.333V241.815C210.5 243.5 207.922 241.498 213 239.5C218.95 237.159 226.068 226.449 227.74 210.303C227.966 208.121 228.392 206.005 229.259 203.99C239.739 179.65 280.143 98.569 300.527 55.6652C301.664 53.2728 300.868 50.4119 298.664 48.9427V48.9427Z" fill="#00A559"/>
<path d="M197 223.333C201.687 212.276 208.703 207.198 214.509 204.039C218.339 201.956 221.503 198.864 223.355 194.918L290.863 51.1181C292.251 48.1604 295.945 47.1302 298.664 48.9427V48.9427C300.868 50.4119 301.664 53.2728 300.527 55.6652C280.143 98.569 239.739 179.65 229.259 203.99C228.392 206.005 227.966 208.121 227.74 210.303C226.068 226.449 218.95 237.159 213 239.5C207.922 241.498 210.5 243.5 197 241.815M197 223.333C197 237.319 197 241.482 197 241.815M197 223.333V241.815" stroke="#00A559"/>
<path d="M94.3359 48.9398C97.0546 47.1274 100.749 48.1575 102.137 51.1153L169.645 194.918C171.497 198.864 174.661 201.955 178.49 204.039C184.297 207.198 191.313 212.276 196 223.333V241.816C182.5 243.5 181.653 242.385 178 240C172.647 236.505 166.766 226.369 165.245 210.304C165.038 208.12 164.608 206.005 163.741 203.99C153.262 179.649 112.857 98.5669 92.4725 55.6623C91.3358 53.2699 92.1321 50.4091 94.3359 48.9398V48.9398Z" fill="#00A559"/>
<path d="M196 223.333C191.313 212.276 184.297 207.198 178.49 204.039C174.661 201.955 171.497 198.864 169.645 194.918L102.137 51.1153C100.749 48.1575 97.0546 47.1274 94.3359 48.9398V48.9398C92.1321 50.4091 91.3358 53.2699 92.4725 55.6623C112.857 98.5669 153.262 179.649 163.741 203.99C164.608 206.005 165.038 208.12 165.245 210.304C166.766 226.369 172.647 236.505 178 240C181.653 242.385 182.5 243.5 196 241.816M196 223.333C196 237.32 196 241.483 196 241.816M196 223.333V241.816" stroke="#00A559"/>
<path d="M280.996 35.3103C278.614 33.8211 275.465 34.7674 274.298 37.3234L218.835 158.791C216.997 162.816 213.783 165.993 210.238 168.643C205.467 172.209 199.939 177.813 194.5 187V201C197.567 202.573 204 207.5 211 203.5C218.437 199.25 224.7 188.532 226.244 173.298C226.465 171.12 226.9 168.999 227.729 166.972C236.797 144.801 264.29 80.7908 282.748 41.2372C283.745 39.1014 282.995 36.5594 280.996 35.3103V35.3103Z" fill="#00A559"/>
<path d="M194.5 187C199.939 177.813 205.467 172.209 210.238 168.643C213.783 165.993 216.997 162.816 218.835 158.791L274.298 37.3234C275.465 34.7674 278.614 33.8211 280.996 35.3103V35.3103C282.995 36.5594 283.745 39.1014 282.748 41.2372C264.29 80.7908 236.797 144.801 227.729 166.972C226.9 168.999 226.465 171.12 226.244 173.298C224.7 188.532 218.437 199.25 211 203.5C204 207.5 197.567 202.573 194.5 201M194.5 187C194.5 200.21 194.5 200.685 194.5 201M194.5 187V201" stroke="#00A559"/>
<path d="M113.504 34.8103C115.886 33.321 119.035 34.2674 120.202 36.8234L175.665 158.291C177.503 162.316 180.717 165.493 184.262 168.143C189.033 171.709 194.561 177.313 200 186.5V200.5C196.933 202.073 190.5 207 183.5 203C176.063 198.75 169.8 188.032 168.256 172.798C168.035 170.62 167.6 168.499 166.771 166.472C157.703 144.301 130.21 80.2908 111.752 40.7372C110.755 38.6014 111.505 36.0594 113.504 34.8103V34.8103Z" fill="#00A559"/>
<path d="M200 186.5C194.561 177.313 189.033 171.709 184.262 168.143C180.717 165.493 177.503 162.316 175.665 158.291L120.202 36.8234C119.035 34.2674 115.886 33.321 113.504 34.8103V34.8103C111.505 36.0594 110.755 38.6014 111.752 40.7372C130.21 80.2908 157.703 144.301 166.771 166.472C167.6 168.499 168.035 170.62 168.256 172.798C169.8 188.032 176.063 198.75 183.5 203C190.5 207 196.933 202.073 200 200.5M200 186.5C200 199.71 200 200.185 200 200.5M200 186.5V200.5" stroke="#00A559"/>
<path d="M234.582 79.1309C234.582 82.64 232.759 85.7503 229.113 88.4619C225.467 91.1735 221.309 92.5293 216.638 92.5293C212.741 92.5293 209.688 91.5495 207.478 89.5898C205.29 87.6074 204.196 84.8503 204.196 81.3184C204.196 78.0143 204.606 75.1318 205.427 72.6709C206.361 69.891 208.184 66.4844 210.896 62.4512L213.015 63.8867C211.237 66.5527 209.973 68.8656 209.221 70.8252C208.469 72.7848 208.093 74.7331 208.093 76.6699C208.093 78.7435 208.856 80.3499 210.383 81.4893C211.932 82.6058 214.108 83.1641 216.911 83.1641C220.922 83.1641 224.18 82.3893 226.687 80.8398C229.193 79.2904 230.446 77.2624 230.446 74.7559C230.446 74.3229 230.446 73.9811 230.446 73.7305C230.446 73.4798 230.446 73.2861 230.446 73.1494C230.446 72.2607 230.367 71.2809 230.207 70.21C230.07 69.139 229.694 66.9287 229.079 63.5791C228.099 58.1787 227.119 52.7669 226.14 47.3438L224.431 46.1133C224.431 43.8802 225.479 40.4622 227.575 35.8594L229.147 36.6113C229.056 36.9303 229.011 37.2949 229.011 37.7051C229.011 38.6165 229.478 39.3571 230.412 39.9268C231.802 40.7015 233.112 41.4421 234.343 42.1484C234.092 44.1081 233.841 45.5094 233.591 46.3525C233.34 47.1956 232.816 48.4603 232.019 50.1465L230.993 49.7363C230.993 50.0781 231.312 52.0264 231.95 55.5811C232.611 59.113 233.169 62.1663 233.625 64.7412C234.263 68.4326 234.582 70.6771 234.582 71.4746V79.1309Z" fill="#00A559"/>
<path d="M180.54 47.7373L176.438 55.3936L168.44 51.2236L172.508 43.499L180.54 47.7373ZM182.283 82.7715C182.283 84.1615 181.486 86.0072 179.891 88.3086C178.296 90.5872 176.427 92.5697 174.285 94.2559C171.915 96.1243 169.887 97.0586 168.201 97.0586C166.196 97.0586 164.043 96.4889 161.741 95.3496C159.736 94.3698 156.603 92.4102 152.342 89.4707L153.777 87.3516C155.828 88.7188 157.48 89.6416 158.733 90.1201C159.987 90.5986 161.342 90.8379 162.801 90.8379C164.373 90.8379 165.945 90.3936 167.518 89.5049C169.09 88.6162 171.232 86.9642 173.943 84.5488C177.726 81.1764 179.617 78.5788 179.617 76.7559C179.617 75.8444 179.253 74.6481 178.523 73.167C177.703 71.4808 176.701 70.0794 175.516 68.9629L177.43 59.7344C178.979 61.3294 180.175 63.1637 181.019 65.2373C181.862 67.3109 182.283 69.6693 182.283 72.3125V82.7715Z" fill="#00A559"/>
<path d="M195 111.5C195.833 110.5 199.9 109.6 201.5 112V124.5C201.666 125.833 202.5 127.5 203.5 129C207.5 130.5 211.333 141.666 213 147C213.833 151.5 214.023 159.977 212.5 161.5C211 163 204.677 167.984 199 168.5C193.5 169 183.5 163.5 182.5 161.5C181.7 159.9 181.333 151.5 181.5 148C184.667 141.833 191.5 128.3 193.5 125.5C196 122 194 111 195 111.5Z" fill="#00A559"/>
<path d="M201.5 112C199.9 109.6 195.833 110.5 195 111.5C194 111 196 122 193.5 125.5C191.5 128.3 184.667 141.833 181.5 148C181.333 151.5 181.7 159.9 182.5 161.5C183.5 163.5 193.5 169 199 168.5C204.677 167.984 211 163 212.5 161.5C214.023 159.977 213.833 151.5 213 147C211.333 141.666 207.5 130.5 203.5 129C202.5 127.5 201.666 125.833 201.5 124.5M201.5 112C201.5 116 201.5 122 201.5 124.5M201.5 112V124.5" stroke="#00A559"/>
</svg>
