<svg width="28" height="27" viewBox="0 0 28 27" fill="none" xmlns="http://www.w3.org/2000/svg">
<g clip-path="url(#clip0_72_241)">
<path d="M0.727539 7.05167C0.727539 6.17795 1.07462 5.34002 1.69243 4.72222C2.31024 4.10441 3.14817 3.75732 4.02188 3.75732H23.788C24.6617 3.75732 25.4996 4.10441 26.1174 4.72222C26.7352 5.34002 27.0823 6.17795 27.0823 7.05167V20.229C27.0823 21.1028 26.7352 21.9407 26.1174 22.5585C25.4996 23.1763 24.6617 23.5234 23.788 23.5234H4.02188C3.14817 23.5234 2.31024 23.1763 1.69243 22.5585C1.07462 21.9407 0.727539 21.1028 0.727539 20.229V7.05167ZM4.02188 5.4045C3.58503 5.4045 3.16606 5.57804 2.85716 5.88694C2.54825 6.19585 2.37471 6.61481 2.37471 7.05167V7.40911L13.9049 14.3272L25.4351 7.40911V7.05167C25.4351 6.61481 25.2616 6.19585 24.9527 5.88694C24.6438 5.57804 24.2248 5.4045 23.788 5.4045H4.02188ZM25.4351 9.32971L17.6802 13.983L25.4351 18.7548V9.32971ZM25.3791 20.6557L16.0891 14.9383L13.9049 16.2478L11.7208 14.9383L2.43072 20.654C2.52432 21.0045 2.73102 21.3143 3.01874 21.5353C3.30646 21.7563 3.65909 21.8762 4.02188 21.8762H23.788C24.1505 21.8763 24.503 21.7567 24.7907 21.536C25.0784 21.3153 25.2852 21.0059 25.3791 20.6557ZM2.37471 18.7548L10.1296 13.983L2.37471 9.32971V18.7548Z" fill="white"/>
</g>
<defs>
<clipPath id="clip0_72_241">
<rect width="26.3548" height="26.3548" fill="white" transform="translate(0.727539 0.462891)"/>
</clipPath>
</defs>
</svg>
