<svg width="27" height="28" viewBox="0 0 27 28" fill="none" xmlns="http://www.w3.org/2000/svg">
<g clip-path="url(#clip0_72_239)">
<path d="M6.34034 2.97455C6.24311 2.84947 6.12037 2.7465 5.98028 2.6725C5.84019 2.5985 5.68595 2.55515 5.52782 2.54534C5.36969 2.53552 5.21129 2.55946 5.06312 2.61557C4.91495 2.67169 4.78042 2.75868 4.66846 2.87078L2.96529 4.5756C2.1697 5.37283 1.87651 6.50115 2.22406 7.4911C3.66655 11.5886 6.01304 15.3087 9.08947 18.3756C12.1564 21.452 15.8765 23.7985 19.974 25.241C20.9639 25.5886 22.0923 25.2954 22.8895 24.4998L24.5927 22.7966C24.7048 22.6847 24.7918 22.5501 24.8479 22.402C24.904 22.2538 24.9279 22.0954 24.9181 21.9373C24.9083 21.7791 24.8649 21.6249 24.7909 21.4848C24.7169 21.3447 24.614 21.222 24.4889 21.1247L20.6889 18.1697C20.5552 18.0661 20.3998 17.9941 20.2343 17.9593C20.0688 17.9245 19.8976 17.9277 19.7335 17.9688L16.1262 18.8698C15.6447 18.9901 15.1402 18.9837 14.6619 18.8512C14.1836 18.7187 13.7478 18.4647 13.3968 18.1137L9.35137 14.0666C9.00015 13.7158 8.74575 13.2801 8.61297 12.8017C8.48018 12.3234 8.47354 11.8189 8.59368 11.3372L9.49633 7.72994C9.53735 7.56587 9.54058 7.39463 9.50577 7.22914C9.47096 7.06364 9.39902 6.90821 9.29537 6.77458L6.34034 2.97455ZM3.42485 1.62881C3.7131 1.34047 4.05939 1.11676 4.44072 0.972515C4.82206 0.828273 5.22973 0.766808 5.63664 0.792202C6.04356 0.817595 6.44041 0.929265 6.80086 1.1198C7.16131 1.31033 7.4771 1.57536 7.72726 1.8973L10.6823 5.69568C11.2242 6.39243 11.4153 7.30003 11.2011 8.15656L10.3001 11.7639C10.2536 11.9507 10.2561 12.1464 10.3075 12.332C10.3588 12.5176 10.4573 12.6867 10.5933 12.823L14.6404 16.8701C14.7769 17.0064 14.9463 17.1051 15.1322 17.1564C15.3181 17.2078 15.5141 17.2102 15.7012 17.1633L19.3069 16.2623C19.7296 16.1566 20.1708 16.1484 20.5971 16.2383C21.0234 16.3282 21.4237 16.5138 21.7678 16.7811L25.5661 19.7362C26.9316 20.7986 27.0568 22.8164 25.8346 24.0369L24.1315 25.7401C22.9125 26.959 21.0908 27.4944 19.3925 26.8964C15.046 25.3671 11.0995 22.8787 7.84586 19.6159C4.58329 16.3628 2.09494 12.4169 0.565358 8.0709C-0.0309184 6.37432 0.504413 4.5509 1.72332 3.33199L3.4265 1.62881H3.42485Z" fill="white"/>
</g>
<defs>
<clipPath id="clip0_72_239">
<rect width="26.3548" height="26.3548" fill="white" transform="translate(0.321289 0.786865)"/>
</clipPath>
</defs>
</svg>
